<svg id="visual" viewBox="0 0 900 600" width="900" height="600" xmlns="http://www.w3.org/2000/svg" xmlns:xlink="http://www.w3.org/1999/xlink" version="1.1"><rect x="0" y="0" width="900" height="600" fill="#FFFFFF"></rect><defs><linearGradient id="grad1_0" x1="33.3%" y1="0%" x2="100%" y2="100%"><stop offset="20%" stop-color="#ffffff" stop-opacity="1"></stop><stop offset="80%" stop-color="#ffffff" stop-opacity="1"></stop></linearGradient></defs><defs><linearGradient id="grad2_0" x1="0%" y1="0%" x2="66.7%" y2="100%"><stop offset="20%" stop-color="#ffffff" stop-opacity="1"></stop><stop offset="80%" stop-color="#ffffff" stop-opacity="1"></stop></linearGradient></defs><g transform="translate(900, 0)"><path d="M0 297.5C-14.9 243 -29.7 188.6 -60.3 185.5C-90.8 182.4 -137.1 230.6 -172.2 237C-207.4 243.5 -231.5 208.1 -240.6 174.8C-249.8 141.6 -244.1 110.4 -251.1 81.6C-258.1 52.8 -277.8 26.4 -297.5 0L0 0Z" fill="#62DFEB"></path></g><g transform="translate(0, 600)"><path d="M0 -297.5C24.1 -272.8 48.3 -248.2 78.8 -242.5C109.3 -236.8 146.3 -250.1 174.8 -240.6C203.4 -231.2 223.6 -199.2 231.4 -168.1C239.2 -137 234.5 -107 243.5 -79.1C252.4 -51.3 274.9 -25.6 297.5 0L0 0Z" fill="#62DFEB"></path></g></svg>